<svg width="106" height="85" viewBox="0 0 106 85" fill="none" xmlns="http://www.w3.org/2000/svg">
<path d="M61.1619 8.14918C61.1627 9.76195 60.6845 11.3387 59.7877 12.6801C58.891 14.0215 57.6159 15.0672 56.1239 15.685C54.6318 16.3027 52.9898 16.4648 51.4055 16.1507C49.8212 15.8365 48.3658 15.0603 47.2233 13.9202C46.0809 12.7801 45.3027 11.3273 44.9873 9.74561C44.6719 8.16389 44.8333 6.5243 45.4513 5.03421C46.0692 3.54412 47.1158 2.27048 48.4588 1.37439C49.8018 0.478293 51.3807 -3.59799e-06 52.996 -3.8147e-06C55.161 -4.10517e-06 57.2374 0.858434 58.7686 2.38658C60.2999 3.91473 61.1607 5.9875 61.1619 8.14918Z" fill="#20AAFB"/>
<path d="M104.996 29.5112C102.731 29.3252 97.0543 28.7969 88.8165 30.9821C87.7751 22.4948 85.4299 15.9053 82.5386 8.87195C71.4804 12.7764 61.4011 19.0276 52.9949 27.1949C44.591 19.0267 34.5129 12.7754 23.4554 8.87195C20.5557 15.9053 18.2189 22.4948 17.1776 30.9821C8.33011 28.6658 3.26294 29.3252 0.998162 29.5112C-1.43594 42.3056 0.422446 56.8456 8.23698 67.4843C19.3026 82.54 36.8536 83.6897 45.9127 85.0042C42.1028 81.3269 33.5009 71.6646 31.6721 69.2807L31.6383 69.2469C23.5147 58.6546 20.9578 47.5721 21.5505 34.6382C21.7023 32.1814 22.0334 29.7389 22.5411 27.3302C23.3661 23.1 24.5573 18.9492 26.1012 14.9247C30.4614 16.7887 40.7947 21.8016 49.8073 30.6947C46.5371 34.3795 43.736 38.454 41.4678 42.8255C36.6374 38.8158 31.126 35.7035 25.1953 33.6365C25.0237 35.3214 24.9643 37.0158 25.0175 38.7086C39.5121 44.9811 49.2062 55.8481 52.9229 62.1206C56.0259 58.0587 58.1002 54.8717 62.7567 50.552C63.6197 52.9034 64.3032 55.3168 64.8014 57.7712C63.3536 60.0917 58.6166 67.3068 52.9907 71.9605C47.3689 67.311 42.632 60.0917 41.1842 57.7712C41.4424 56.5032 41.6668 55.3578 42.0308 54.1109C40.789 52.9126 39.4817 51.7837 38.1151 50.7295C37.2833 53.3279 36.6437 55.9838 36.2017 58.6758C41.8488 68.9764 48.097 74.0612 52.9229 77.9582C58.0282 73.9048 65.1062 67.9577 69.7923 58.6758C67.6419 46.4689 60.4454 35.9654 58.4177 33.3956C57.262 34.5157 56.0936 35.7118 55.103 36.8531C57.3029 39.6925 59.2091 42.7472 60.7925 45.9702C57.9476 48.4642 55.3374 51.2132 52.9949 54.1827C50.655 51.2122 48.0462 48.4631 45.2015 45.9702C48.9479 38.2986 55.6618 30.6947 58.8452 28.2178C65.1242 22.729 72.219 18.2474 79.8759 14.9331C82.0548 20.5407 83.51 26.4024 84.2065 32.3769C78.1187 34.4517 72.3542 37.373 67.0831 41.0544C67.8828 42.442 68.5899 43.8808 69.1997 45.3615C73.8562 42.0562 80.7098 38.362 86.8141 36.4853C92.3978 34.7946 98.3074 33.9873 100.932 33.9873C101.499 39.0214 102.202 53.3966 93.9344 64.6651C89.2102 71.0982 82.2677 75.5447 73.2382 77.9455C79.9225 71.0813 89.0916 58.2151 89.2821 39.2031C87.6862 39.6554 86.0056 40.1795 84.5113 40.7417C84.0668 53.1472 79.6515 62.2981 74.3515 69.23C73.9875 69.6527 65.8427 79.408 60.0771 84.9873C69.1362 83.6728 86.6871 82.5231 97.7528 67.4674C105.572 56.8414 107.434 42.3013 104.996 29.5112ZM32.7558 77.9582C23.7264 75.5574 16.7881 71.1109 12.0596 64.6778C3.77939 53.4092 4.49481 39.0341 5.06206 34H5.18483C9.1155 34.0742 13.0189 34.6698 16.7923 35.771C15.7975 56.6808 25.6737 70.6882 32.7558 77.9582Z" fill="#20AAFB"/>
</svg>
