<svg width="34" height="34" viewBox="0 0 34 34" fill="none" xmlns="http://www.w3.org/2000/svg">
<path d="M2.83398 12.75V9.20831C2.83398 5.68081 5.68148 2.83331 9.20898 2.83331H12.7507" stroke="#F7FBFF" stroke-width="2.5" stroke-linecap="round" stroke-linejoin="round"/>
<path d="M21.25 2.83331H24.7917C28.3192 2.83331 31.1667 5.68081 31.1667 9.20831V12.75" stroke="#F7FBFF" stroke-width="2.5" stroke-linecap="round" stroke-linejoin="round"/>
<path d="M31.166 22.6667V24.7917C31.166 28.3192 28.3185 31.1667 24.791 31.1667H22.666" stroke="#F7FBFF" stroke-width="2.5" stroke-linecap="round" stroke-linejoin="round"/>
<path d="M12.7507 31.1667H9.20898C5.68148 31.1667 2.83398 28.3192 2.83398 24.7917V21.25" stroke="#F7FBFF" stroke-width="2.5" stroke-linecap="round" stroke-linejoin="round"/>
<path d="M14.8743 9.91669V12.75C14.8743 14.1667 14.166 14.875 12.7493 14.875H9.91602C8.49935 14.875 7.79102 14.1667 7.79102 12.75V9.91669C7.79102 8.50002 8.49935 7.79169 9.91602 7.79169H12.7493C14.166 7.79169 14.8743 8.50002 14.8743 9.91669Z" stroke="#F7FBFF" stroke-width="2.5" stroke-linecap="round" stroke-linejoin="round"/>
<path d="M26.2083 9.91669V12.75C26.2083 14.1667 25.5 14.875 24.0833 14.875H21.25C19.8333 14.875 19.125 14.1667 19.125 12.75V9.91669C19.125 8.50002 19.8333 7.79169 21.25 7.79169H24.0833C25.5 7.79169 26.2083 8.50002 26.2083 9.91669Z" stroke="#F7FBFF" stroke-width="2.5" stroke-linecap="round" stroke-linejoin="round"/>
<path d="M14.8743 21.25V24.0833C14.8743 25.5 14.166 26.2083 12.7493 26.2083H9.91602C8.49935 26.2083 7.79102 25.5 7.79102 24.0833V21.25C7.79102 19.8333 8.49935 19.125 9.91602 19.125H12.7493C14.166 19.125 14.8743 19.8333 14.8743 21.25Z" stroke="#F7FBFF" stroke-width="2.5" stroke-linecap="round" stroke-linejoin="round"/>
<path d="M26.2083 21.25V24.0833C26.2083 25.5 25.5 26.2083 24.0833 26.2083H21.25C19.8333 26.2083 19.125 25.5 19.125 24.0833V21.25C19.125 19.8333 19.8333 19.125 21.25 19.125H24.0833C25.5 19.125 26.2083 19.8333 26.2083 21.25Z" stroke="#F7FBFF" stroke-width="2.5" stroke-linecap="round" stroke-linejoin="round"/>
</svg>
